<svg width="44" height="44" viewBox="0 0 44 44" fill="none" xmlns="http://www.w3.org/2000/svg">
<path fill-rule="evenodd" clip-rule="evenodd" d="M28.0131 6.57553C27.2835 6.15325 26.4816 5.84318 25.6315 5.6668C24.8275 5.5 23.885 5.5 22 5.5C20.115 5.5 19.1726 5.5 18.3685 5.6668C15.5593 6.24962 13.2773 8.29212 12.3879 11.0198C12.1333 11.8004 12.0292 12.7372 11.821 14.6106L11.3594 18.7653C11.1935 20.2584 11.1106 21.0049 10.8931 21.7172C10.8476 21.8663 10.7977 22.014 10.7436 22.1601C10.4849 22.8585 10.0984 23.5026 9.32553 24.7908L7.3174 28.1377C6.51164 29.4806 6.10876 30.1521 6.39599 30.6594C6.68322 31.1667 7.46627 31.1667 9.03238 31.1667H34.9676C36.5337 31.1667 37.3168 31.1667 37.604 30.6594C37.8912 30.1521 37.4884 29.4806 36.6826 28.1377L34.6745 24.7908C33.9016 23.5026 33.5151 22.8585 33.2564 22.1601C33.2023 22.014 33.1524 21.8663 33.1069 21.7172C32.8894 21.0049 32.8065 20.2584 32.6406 18.7653L32.5166 17.6494C29.0604 17.4018 26.3333 14.5193 26.3333 11C26.3333 9.30217 26.968 7.75257 28.0131 6.57553ZM30.2822 8.53865C29.6926 9.18934 29.3333 10.0527 29.3333 11C29.3333 12.7413 30.5472 14.1991 32.1748 14.5734C31.9694 12.7247 31.865 11.7953 31.6121 11.0198C31.3142 10.1062 30.8601 9.26942 30.2822 8.53865Z" fill="#494949"/>
<path d="M16.5 31.1667C16.5 31.8889 16.6423 32.6041 16.9187 33.2714C17.1951 33.9387 17.6002 34.545 18.1109 35.0558C18.6216 35.5665 19.228 35.9716 19.8952 36.248C20.5625 36.5244 21.2777 36.6667 22 36.6667C22.7223 36.6667 23.4375 36.5244 24.1048 36.248C24.772 35.9716 25.3784 35.5665 25.8891 35.0558C26.3998 34.545 26.8049 33.9387 27.0813 33.2714C27.3577 32.6041 27.5 31.8889 27.5 31.1667L22 31.1667H16.5Z" fill="#494949"/>
<path d="M33 15.1667C35.3012 15.1667 37.1667 13.3012 37.1667 11C37.1667 8.69881 35.3012 6.83333 33 6.83333C30.6988 6.83333 28.8333 8.69881 28.8333 11C28.8333 13.3012 30.6988 15.1667 33 15.1667Z" fill="#494949" stroke="#494949"/>
</svg>
