<svg width="44" height="44" viewBox="0 0 44 44" fill="none" xmlns="http://www.w3.org/2000/svg">
<path fill-rule="evenodd" clip-rule="evenodd" d="M22 38.5C31.1127 38.5 38.5 31.1127 38.5 22C38.5 12.8873 31.1127 5.5 22 5.5C12.8873 5.5 5.5 12.8873 5.5 22C5.5 31.1127 12.8873 38.5 22 38.5ZM30.1016 17.1402C30.4551 16.7159 30.3978 16.0853 29.9735 15.7318C29.5492 15.3782 28.9187 15.4355 28.5651 15.8598L20.8005 25.1774C20.4538 25.5934 20.2589 25.8238 20.1032 25.9653L20.0973 25.9707L20.0909 25.9659C19.9231 25.839 19.7081 25.6272 19.3252 25.2443L15.3738 21.2929C14.9832 20.9024 14.3501 20.9024 13.9596 21.2929C13.569 21.6834 13.569 22.3166 13.9596 22.7071L17.9109 26.6585L17.9518 26.6993L17.9518 26.6994C18.2783 27.026 18.5924 27.3402 18.8846 27.5611C19.212 27.8087 19.6407 28.0415 20.1901 28.0165C20.7395 27.9916 21.1454 27.721 21.449 27.4448C21.72 27.1983 22.0044 26.8569 22.3 26.5021L22.3369 26.4577L30.1016 17.1402Z" fill="#494949"/>
</svg>
