<svg width="44" height="44" viewBox="0 0 44 44" fill="none" xmlns="http://www.w3.org/2000/svg">
<path fill-rule="evenodd" clip-rule="evenodd" d="M9.66984 18.5647C9.16666 19.6587 9.16666 20.9033 9.16666 23.3925V31.1666C9.16666 34.6235 9.16666 36.352 10.2406 37.4259C11.3059 38.4912 13.0152 38.4998 16.4167 38.4999V29.3333C16.4167 27.7685 17.6852 26.5 19.25 26.5H24.75C26.3148 26.5 27.5833 27.7685 27.5833 29.3333V38.4999C30.9848 38.4998 32.6941 38.4912 33.7594 37.4259C34.8333 36.352 34.8333 34.6235 34.8333 31.1666V23.3925C34.8333 20.9033 34.8333 19.6587 34.3301 18.5647C33.827 17.4706 32.882 16.6606 30.992 15.0407L29.1587 13.4693C25.7426 10.5412 24.0346 9.07715 22 9.07715C19.9654 9.07715 18.2574 10.5412 14.8413 13.4693L13.008 15.0407C11.118 16.6606 10.173 17.4706 9.66984 18.5647ZM25.5833 38.4999V29.3333C25.5833 28.8731 25.2102 28.5 24.75 28.5H19.25C18.7898 28.5 18.4167 28.8731 18.4167 29.3333V38.4999H25.5833Z" fill="#494949"/>
</svg>
