<svg width="30" height="30" viewBox="0 0 30 30" fill="none" xmlns="http://www.w3.org/2000/svg">
<path d="M12.5 15L11.7929 14.2929L11.0858 15L11.7929 15.7071L12.5 15ZM23.75 16C24.3023 16 24.75 15.5523 24.75 15C24.75 14.4477 24.3023 14 23.75 14L23.75 16ZM18.0429 8.04289L11.7929 14.2929L13.2071 15.7071L19.4571 9.45711L18.0429 8.04289ZM11.7929 15.7071L18.0429 21.9571L19.4571 20.5429L13.2071 14.2929L11.7929 15.7071ZM12.5 16L23.75 16L23.75 14L12.5 14L12.5 16Z" fill="white"/>
<path d="M10 6.25L8.75 6.25C7.36929 6.25 6.25 7.36929 6.25 8.75L6.25 21.25C6.25 22.6307 7.36929 23.75 8.75 23.75H10" stroke="white" stroke-width="2"/>
</svg>
