<svg width="44" height="45" viewBox="0 0 44 45" fill="none" xmlns="http://www.w3.org/2000/svg">
<path fill-rule="evenodd" clip-rule="evenodd" d="M22 2.37961C21.3306 2.37961 20.7511 2.81644 19.5922 3.69011L14.1944 7.75916C14.0136 7.89542 13.9233 7.96354 13.826 8.02094C13.7287 8.07834 13.6254 8.12452 13.4188 8.21688L13.4188 8.21688L7.19664 10.9979C5.91296 11.5717 5.27113 11.8585 4.94704 12.4237C4.62295 12.9888 4.69952 13.6877 4.85265 15.0854L5.61727 22.0644C5.64111 22.282 5.65303 22.3908 5.65303 22.5C5.65303 22.6092 5.64111 22.718 5.61727 22.9356L4.85265 29.9146C4.69952 31.3123 4.62295 32.0112 4.94704 32.5763C5.27113 33.1414 5.91296 33.4283 7.19664 34.0021L13.4188 36.7831L13.4189 36.7832C13.6254 36.8755 13.7288 36.9217 13.826 36.9791C13.9233 37.0364 14.0136 37.1046 14.1944 37.2408L19.5922 41.3099C20.7511 42.1836 21.3306 42.6204 22 42.6204C22.6694 42.6204 23.2489 42.1836 24.4078 41.3099L29.8056 37.2408C29.9864 37.1046 30.0767 37.0364 30.174 36.9791C30.2713 36.9217 30.3746 36.8755 30.5812 36.7831L30.5812 36.7831L36.8034 34.0021C38.087 33.4283 38.7289 33.1414 39.053 32.5763C39.3771 32.0112 39.3005 31.3123 39.1474 29.9146L38.3827 22.9356L38.3827 22.9355C38.3589 22.718 38.347 22.6092 38.347 22.5C38.347 22.3908 38.3589 22.282 38.3827 22.0645L38.3827 22.0644L39.1474 15.0854C39.3005 13.6877 39.3771 12.9888 39.053 12.4237C38.7289 11.8585 38.087 11.5717 36.8034 10.9979L30.5812 8.21688C30.3746 8.12452 30.2713 8.07834 30.174 8.02094C30.0767 7.96354 29.9864 7.89542 29.8056 7.75916L24.4078 3.69011C23.2489 2.81644 22.6694 2.37961 22 2.37961ZM22 30C26.0501 30 29.3333 26.6421 29.3333 22.5C29.3333 18.3579 26.0501 15 22 15C17.9499 15 14.6667 18.3579 14.6667 22.5C14.6667 26.6421 17.9499 30 22 30Z" fill="#494949"/>
</svg>
