<svg width="44" height="44" viewBox="0 0 44 44" fill="none" xmlns="http://www.w3.org/2000/svg">
<path fill-rule="evenodd" clip-rule="evenodd" d="M30 29.1093C27.5636 28.0588 24.8122 27.5 21.9999 27.5C18.3677 27.5 14.837 28.4322 11.9554 30.152C9.44997 31.6472 7.55696 33.6652 6.48751 35.9601C6.23311 36.506 6.58369 37.1205 7.17331 37.2434L13.8391 38.6326C19.1682 39.7432 24.6674 39.7542 30 38.6657V36H25.6667C24.0098 36 22.6667 34.6569 22.6667 33C22.6667 31.3431 24.0098 30 25.6667 30H30V29.1093ZM36 37.4157L36.8266 37.2434C37.4019 37.1235 37.7496 36.5356 37.5298 36H36V37.4157Z" fill="#494949"/>
<path d="M33 25.6667L33 40.3333" stroke="#494949" stroke-width="2.5" stroke-linecap="round"/>
<path d="M40.3333 33L25.6667 33" stroke="#494949" stroke-width="2.5" stroke-linecap="round"/>
<ellipse cx="22" cy="14.6667" rx="9.16667" ry="9.16667" fill="#494949"/>
</svg>
