<svg width="45" height="45" viewBox="0 0 45 45" fill="none" xmlns="http://www.w3.org/2000/svg">
<path d="M37.5 8.5C38.0523 8.5 38.5 8.05229 38.5 7.5C38.5 6.94771 38.0523 6.5 37.5 6.5V8.5ZM5.6614 10.9617L6.65231 11.0963L5.6614 10.9617ZM9.08669 7.53639L8.95211 6.54549L9.08669 7.53639ZM5.6614 13.4133L6.65231 13.2787L5.6614 13.4133ZM9.08669 16.8386L9.22127 15.8477L9.08669 16.8386ZM10.3125 8.5L37.5 8.5V6.5L10.3125 6.5V8.5ZM10.3125 17.875H25.3125V15.875L10.3125 15.875V17.875ZM6.62502 12.1875C6.62502 11.5161 6.62731 11.2803 6.65231 11.0963L4.6705 10.8271C4.62272 11.1789 4.62502 11.5817 4.62502 12.1875H6.62502ZM10.3125 6.5C9.70671 6.5 9.30391 6.49771 8.95211 6.54549L9.22127 8.52729C9.40534 8.50229 9.64113 8.5 10.3125 8.5V6.5ZM6.65231 11.0963C6.83381 9.75983 7.88484 8.7088 9.22127 8.52729L8.95211 6.54549C6.72473 6.848 4.97301 8.59971 4.6705 10.8271L6.65231 11.0963ZM4.62502 12.1875C4.62502 12.7933 4.62272 13.1961 4.6705 13.5479L6.65231 13.2787C6.62731 13.0947 6.62502 12.8589 6.62502 12.1875H4.62502ZM10.3125 15.875C9.64113 15.875 9.40534 15.8727 9.22127 15.8477L8.95211 17.8295C9.30391 17.8773 9.70671 17.875 10.3125 17.875V15.875ZM4.6705 13.5479C4.97301 15.7753 6.72473 17.527 8.95211 17.8295L9.22127 15.8477C7.88484 15.6662 6.83381 14.6152 6.65231 13.2787L4.6705 13.5479Z" fill="#494949"/>
<path d="M5.625 22.5L5.625 12.1875" stroke="#494949" stroke-width="2"/>
<path d="M39.4357 39.4357C39.6905 39.1808 39.7899 38.8667 39.8339 38.5389C39.875 38.2331 39.875 37.8512 39.875 37.4079C39.875 37.397 39.875 37.386 39.875 37.375V33.75V33.25H39.375H33.75C32.198 33.25 31.5426 33.2436 31.0271 33.0733C29.9748 32.7257 29.1493 31.9002 28.8017 30.8479C28.6314 30.3324 28.625 29.677 28.625 28.125C28.625 26.573 28.6314 25.9176 28.8017 25.4021C29.1493 24.3498 29.9748 23.5243 31.0271 23.1767C31.5426 23.0064 32.198 23 33.75 23H39.375H39.875V22.5V18.875L39.875 18.8421C39.875 18.3988 39.875 18.0169 39.8339 17.7111C39.7899 17.3833 39.6905 17.0692 39.4357 16.8143L39.4357 16.8143C39.1808 16.5595 38.8667 16.4601 38.5389 16.4161C38.2331 16.375 37.8512 16.375 37.4079 16.375H37.375L5.625 16.375H5.125V16.875L5.125 37.375V37.4079C5.12497 37.8511 5.12495 38.2331 5.16607 38.5389C5.21014 38.8667 5.30951 39.1808 5.56434 39.4357C5.81917 39.6905 6.13335 39.7899 6.4611 39.8339C6.76693 39.875 7.14884 39.875 7.59208 39.875L7.625 39.875L37.375 39.875C37.386 39.875 37.397 39.875 37.4079 39.875C37.8512 39.875 38.2331 39.875 38.5389 39.8339C38.8667 39.7899 39.1808 39.6905 39.4357 39.4357ZM39.4357 39.4357L39.0821 39.0821M39.4357 39.4357L39.0821 39.0821M39.0821 39.0821C38.7892 39.375 38.3178 39.375 37.375 39.375L7.625 39.375C6.68219 39.375 6.21078 39.375 5.91789 39.0821C5.625 38.7892 5.625 38.3178 5.625 37.375V17.375L5.625 16.875H6.125L37.375 16.875C38.3178 16.875 38.7892 16.875 39.0821 17.1679C39.375 17.4608 39.375 17.9322 39.375 18.875V22V22.5H38.875H33.75C32.2376 22.5 31.4814 22.5 30.8703 22.7019C29.6676 23.0992 28.7242 24.0426 28.3269 25.2453C28.125 25.8564 28.125 26.6126 28.125 28.125C28.125 29.6374 28.125 30.3936 28.3269 31.0047C28.7242 32.2074 29.6676 33.1508 30.8703 33.5481C31.4814 33.75 32.2376 33.75 33.75 33.75H38.875H39.375V34.25V37.375C39.375 38.3178 39.375 38.7892 39.0821 39.0821Z" fill="#494949" stroke="#494949"/>
</svg>
